<?xml version="1.0" standalone="no"?>
<!DOCTYPE svg PUBLIC "-//W3C//DTD SVG 20010904//EN"
 "http://www.w3.org/TR/2001/REC-SVG-20010904/DTD/svg10.dtd">
<svg version="1.0" xmlns="http://www.w3.org/2000/svg"
 width="500.000000pt" height="500.000000pt" viewBox="0 0 500.000000 500.000000"
 preserveAspectRatio="xMidYMid meet">
<metadata>
Created by potrace 1.11, written by Peter Selinger 2001-2013
</metadata>
<g transform="translate(0.000000,500.000000) scale(0.100000,-0.100000)"
fill="#000000" stroke="none">
<path d="M2460 4814 c-22 -9 -48 -13 -71 -9 -51 9 -99 -14 -140 -65 -19 -24
-56 -66 -82 -95 -26 -29 -52 -67 -57 -84 -12 -41 -5 -230 10 -275 9 -27 8 -46
-5 -94 -20 -80 -19 -109 4 -122 11 -5 22 -10 25 -10 9 0 -7 35 -23 48 -14 12
-14 13 2 8 15 -5 17 2 17 47 0 67 18 189 29 200 5 5 6 -4 3 -19 -4 -20 -2 -25
8 -19 23 14 30 -17 9 -43 -24 -30 -26 -117 -4 -179 8 -24 14 -71 14 -105 -1
-68 8 -101 43 -151 45 -64 48 -66 75 -56 24 9 25 8 21 -22 -3 -18 2 -46 11
-63 21 -43 24 -113 4 -121 -20 -7 -20 -8 -36 54 l-13 52 -58 -68 c-63 -74
-110 -113 -139 -113 -27 0 -131 -103 -149 -148 -57 -136 -99 -303 -91 -361 4
-29 1 -48 -12 -67 -9 -15 -16 -41 -15 -58 5 -95 1 -134 -29 -271 -17 -82 -38
-163 -46 -180 -7 -16 -23 -67 -36 -112 l-22 -82 27 -36 c21 -28 26 -42 21 -65
-10 -46 -10 -211 1 -218 11 -8 13 -18 25 -102 5 -36 11 -77 13 -91 2 -14 -1
-71 -8 -125 -11 -97 -9 -139 12 -238 12 -60 29 -72 59 -44 l23 21 0 -37 c0
-20 4 -46 10 -56 13 -25 -11 -85 -28 -68 -14 14 -5 -52 14 -99 7 -18 9 -33 4
-33 -4 0 -15 -19 -23 -43 -13 -37 -13 -46 0 -63 8 -10 23 -50 34 -89 11 -38
31 -104 44 -145 13 -41 31 -111 39 -155 9 -44 42 -183 74 -310 l59 -230 471
-3 c260 -1 472 1 472 6 0 4 11 75 24 157 13 83 27 175 31 205 3 30 13 70 21
88 8 18 12 37 9 42 -3 5 1 36 9 68 10 37 13 77 9 110 -4 38 -2 52 7 52 8 0 11
15 8 49 -1 27 1 47 5 44 5 -3 7 17 6 44 -1 27 0 53 2 59 3 5 6 24 8 43 2 25 0
31 -11 26 -10 -6 -11 -5 0 6 6 7 12 28 12 47 0 27 -3 33 -16 28 -8 -3 -12 -2
-9 4 3 6 13 10 22 10 11 0 13 6 8 22 -4 13 -15 73 -25 133 -10 61 -19 111 -19
112 -1 3 -79 -83 -124 -136 -20 -24 -34 -48 -31 -52 3 -5 1 -9 -4 -9 -19 0
-35 -70 -47 -192 -4 -42 -4 -43 -17 -30 -8 8 -17 8 -30 1 -25 -13 -156 -6
-186 10 -26 14 -28 27 -8 47 20 19 66 36 66 24 0 -24 21 -6 43 38 13 26 30 47
38 46 11 -1 13 11 11 53 -5 75 4 116 33 147 14 15 25 22 25 17 0 -21 17 -10
33 22 26 49 64 97 71 90 3 -4 6 3 6 14 0 22 23 47 33 37 4 -4 11 5 16 20 6 14
15 26 21 26 5 0 10 5 10 12 0 12 56 104 77 126 7 8 11 18 8 23 -4 5 -1 9 5 9
6 0 9 4 6 9 -3 5 1 14 9 21 8 7 15 21 15 31 0 10 4 20 9 23 5 3 12 22 15 41 4
19 11 35 17 35 6 0 5 8 -2 21 -8 16 -8 20 1 14 9 -6 9 -3 1 13 -8 15 -8 29 0
49 6 15 10 29 10 30 -1 18 38 117 58 148 43 64 54 100 55 193 l1 87 60 24 c37
15 82 25 117 25 32 1 58 4 58 9 0 4 6 7 14 7 12 0 12 7 0 47 -8 25 -14 72 -14
105 0 47 -4 60 -20 70 -24 15 -25 31 -5 48 24 20 19 67 -10 82 -13 7 -38 35
-55 62 -28 44 -30 50 -16 65 30 33 20 65 -34 112 -39 34 -50 50 -50 74 0 16
-9 48 -19 70 -10 23 -21 61 -25 86 -17 111 -182 311 -248 300 -5 0 -7 5 -5 12
1 7 -11 13 -32 15 -35 4 -80 27 -94 49 -4 7 -33 20 -64 30 -59 19 -54 12 -107
138 -13 30 -15 31 -67 25 l-54 -5 -7 -44 c-4 -24 -13 -50 -20 -59 -14 -17
-232 -122 -253 -122 -21 0 -26 15 -16 43 8 19 24 30 65 43 31 10 66 28 78 42
20 21 14 19 -47 -13 -53 -27 -78 -35 -97 -30 -41 10 -54 81 -21 114 15 14 14
16 -8 22 -16 5 -18 7 -6 8 9 1 17 6 17 12 0 6 -6 9 -13 6 -7 -3 -24 1 -38 9
l-24 13 25 2 25 1 -27 11 c-16 6 -28 14 -28 19 0 4 -7 5 -16 1 -14 -5 -16 -2
-10 20 5 20 2 27 -14 32 -11 4 -18 11 -15 16 7 11 28 12 22 2 -5 -11 36 -48
51 -47 7 1 21 2 32 3 25 1 27 36 4 49 -13 7 -14 11 -4 17 7 4 16 2 20 -5 4 -7
13 -9 20 -5 17 10 -28 45 -49 38 -12 -3 -12 -2 1 7 9 6 15 17 12 24 -3 8 2 52
10 98 22 114 21 139 -4 145 -19 5 -25 16 -21 37 1 5 -4 13 -11 17 -10 7 -8 12
9 24 12 9 20 21 17 29 -3 7 4 24 15 37 11 13 20 20 21 14 0 -11 123 -12 185
-1 35 6 44 4 64 -18 29 -31 71 -186 71 -263 0 -29 5 -53 10 -53 6 0 10 7 10
15 0 13 47 52 53 44 2 -2 8 -15 15 -29 11 -24 12 -23 7 10 -6 34 -5 34 8 11
14 -24 14 -23 26 26 26 106 15 305 -19 374 -26 52 -49 73 -110 100 -24 11 -62
35 -85 53 -22 18 -53 37 -70 41 -16 4 -34 9 -40 11 -41 12 -54 12 -85 -2z
m295 -124 c3 -5 2 -10 -4 -10 -5 0 -13 5 -16 10 -3 6 -2 10 4 10 5 0 13 -4 16
-10z m-515 -450 c0 -5 -4 -10 -9 -10 -6 0 -13 5 -16 10 -3 6 1 10 9 10 9 0 16
-4 16 -10z m67 4 c-3 -3 -12 -4 -19 -1 -8 3 -5 6 6 6 11 1 17 -2 13 -5z m62
-147 c8 -11 5 -14 -19 -14 -33 0 -40 13 -12 20 9 3 18 5 18 6 1 0 7 -5 13 -12z
m-64 -188 c-6 10 -4 12 4 7 19 -12 30 -49 19 -63 -20 -25 -29 -16 -49 51 -8
28 -8 28 13 10 12 -11 18 -13 13 -5z m-78 -371 c1 -13 7 -24 13 -26 8 -3 7 -8
-1 -18 -14 -17 -39 -1 -39 25 0 13 17 41 25 41 0 0 2 -10 2 -22z m1025 -1198
c9 0 24 -13 33 -30 28 -54 19 -98 -49 -240 l-63 -134 -8 138 c-7 135 -6 141
21 228 26 81 30 87 38 64 6 -15 18 -26 28 -26z m-1252 -263 c-1 -18 -8 -43
-16 -57 -8 -14 -13 -17 -10 -7 3 10 6 39 6 63 0 28 4 43 10 39 6 -3 10 -21 10
-38z m-32 -294 c-6 -40 -8 -81 -5 -93 5 -19 -32 -155 -40 -147 -2 2 1 37 7 78
26 203 30 237 31 274 l1 40 9 -40 c5 -24 4 -69 -3 -112z m702 -747 c0 -2 -8
-10 -17 -17 -16 -13 -17 -12 -4 4 13 16 21 21 21 13z"/>
<path d="M2505 4326 c-20 -15 -20 -15 0 -16 19 -1 19 -2 3 -14 -10 -7 -15 -16
-11 -19 3 -4 1 -7 -5 -7 -7 0 -12 -11 -12 -26 0 -19 8 -28 36 -40 37 -15 61
-11 34 7 -12 7 -11 10 8 15 15 4 21 12 17 22 -4 12 -1 12 19 -2 14 -9 33 -16
43 -16 10 1 -3 11 -29 23 -51 24 -87 64 -49 54 18 -4 40 8 30 17 -15 14 -67
15 -84 2z"/>
<path d="M2642 4324 c10 -10 20 -15 24 -12 3 4 -5 12 -18 18 -22 12 -22 12 -6
-6z"/>
<path d="M2445 4320 c3 -5 10 -10 16 -10 5 0 9 5 9 10 0 6 -7 10 -16 10 -8 0
-12 -4 -9 -10z"/>
<path d="M2521 4078 c17 -29 35 -58 40 -63 4 -6 11 -31 15 -55 6 -34 9 -40 14
-25 4 11 2 35 -6 53 -14 35 -9 41 13 15 15 -18 6 0 -34 65 -17 28 -52 61 -65
62 -4 0 6 -24 23 -52z"/>
<path d="M2807 4111 c-4 -17 -3 -21 5 -13 5 5 8 16 6 23 -3 8 -7 3 -11 -10z"/>
<path d="M2731 3968 c-2 -58 11 -56 27 4 10 38 7 48 -13 48 -7 0 -13 -20 -14
-52z"/>
<path d="M2514 3960 c0 -22 16 -26 34 -8 18 18 14 28 -11 28 -16 0 -23 -6 -23
-20z"/>
</g>
</svg>
